<?xml version="1.0" encoding="UTF-8" standalone="no"?>
<svg
   xmlns:dc="http://purl.org/dc/elements/1.1/"
   xmlns:cc="http://creativecommons.org/ns#"
   xmlns:rdf="http://www.w3.org/1999/02/22-rdf-syntax-ns#"
   xmlns:svg="http://www.w3.org/2000/svg"
   xmlns="http://www.w3.org/2000/svg"
   viewBox="0 0 876.25 225"
   height="225"
   width="876.25"
   xml:space="preserve"
   version="1.1"
   id="svg3428"><metadata
     id="metadata3434"><rdf:RDF><cc:Work
         rdf:about=""><dc:format>image/svg+xml</dc:format><dc:type
           rdf:resource="http://purl.org/dc/dcmitype/StillImage" /><dc:title></dc:title></cc:Work></rdf:RDF></metadata><defs
     id="defs3432"><clipPath
       id="clipPath3444"
       clipPathUnits="userSpaceOnUse"><path
         id="path3446"
         d="M 0,0 701,0 701,180 0,180 0,0 Z" /></clipPath><clipPath
       id="clipPath3460"
       clipPathUnits="userSpaceOnUse"><path
         id="path3462"
         d="m 0,179.559 700.987,0 0,-179.499 L 0,0.06 0,179.559 Z" /></clipPath><clipPath
       id="clipPath3466"
       clipPathUnits="userSpaceOnUse"><path
         id="path3468"
         d="M 0,0 701,0 701,180 0,180 0,0 Z" /></clipPath><clipPath
       id="clipPath3478"
       clipPathUnits="userSpaceOnUse"><path
         id="path3480"
         d="M 0,0 701,0 701,180 0,180 0,0 Z" /></clipPath></defs><g
     transform="matrix(1.25,0,0,-1.25,0,225)"
     id="g3436"><g
       id="g3438" /><g
       id="g3440"><g
         clip-path="url(#clipPath3444)"
         id="g3442"><path
           id="path3448"
           style="fill:#ffffff;fill-opacity:1;fill-rule:nonzero;stroke:none"
           d="m 328.313,145.912 -29.459,0 0.048,-55.122 c 0,-16.109 -6.906,-29.14 -23.015,-29.14 -16.116,0 -23.085,13.031 -23.085,29.14 l 0,55.068 -29.384,0 -0.009,-55.068 c 0,-31.832 20.462,-57.63 52.299,-57.63 31.828,0 52.596,25.798 52.596,57.63 l 0.009,55.122" /><path
           id="path3450"
           style="fill:#ffffff;fill-opacity:1;fill-rule:nonzero;stroke:none"
           d="m 593.958,179.498 29.315,0 0,-143.495 -29.315,0 0,143.495 z" /><path
           id="path3452"
           style="fill:#ffffff;fill-opacity:1;fill-rule:nonzero;stroke:none"
           d="m 644.916,174.207 0,5.155 22.846,0 0,-5.155 -8.356,0 0,-22.721 -6.13,0 0,22.721 -8.36,0" /><path
           id="path3454"
           style="fill:#ffffff;fill-opacity:1;fill-rule:nonzero;stroke:none"
           d="m 679.589,179.362 6.521,-19.167 0.078,0 6.166,19.167 8.633,0 0,-27.876 -5.739,0 0,19.756 -0.08,0 -6.831,-19.756 -4.727,0 -6.83,19.561 -0.078,0 0,-19.561 -5.739,0 0,27.876 8.626,0" /></g></g><g
       id="g3456"><g
         clip-path="url(#clipPath3460)"
         id="g3458"><g
           clip-path="url(#clipPath3466)"
           id="g3464"><path
             id="path3470"
             style="fill:#ffffff;fill-opacity:1;fill-rule:nonzero;stroke:none"
             d="m 199.455,147.11 c -25.269,5.832 -41.21,-19.272 -41.872,-20.618 -0.325,-0.661 -0.338,-1.046 -1.457,-1.016 -0.925,0.019 -1.03,1.016 -1.03,1.016 l -3.136,19.203 -26.261,0 0,-109.597 29.437,0 0,59.323 c 0,4.848 13.054,28.091 38.346,22.108 12.792,-3.026 18.217,-8.453 18.217,-8.453 0,0 0,21.155 0,33.386 -4.733,2.468 -7.98,3.664 -12.244,4.648" /><path
             id="path3472"
             style="fill:#ffffff;fill-opacity:1;fill-rule:nonzero;stroke:none"
             d="m 396.794,119.339 c 16.225,0 29.374,-13.152 29.374,-29.365 0,-16.227 -13.149,-29.379 -29.374,-29.379 -16.222,0 -29.367,13.152 -29.367,29.379 0,16.213 13.145,29.365 29.367,29.365 z M 368.26,0 l 0,39.435 c 0.003,0 0.008,-0.004 0.01,-0.007 l 0.004,14.768 c 0,0 0.047,1.181 1.112,1.196 0.95,0.01 1.162,-0.619 1.393,-1.196 2.232,-5.554 14.507,-26.712 41.747,-20.075 24.385,6.869 42.271,29.261 42.271,55.853 0,32.04 -25.981,58.023 -58.027,58.023 -32.047,0 -58.026,-25.983 -58.026,-58.023 0,0 0,-79.32 0,-89.974 l 29.516,0" /></g></g></g><g
       id="g3474"><g
         clip-path="url(#clipPath3478)"
         id="g3476"><path
           id="path3482"
           style="fill:#ffffff;fill-opacity:1;fill-rule:nonzero;stroke:none"
           d="m 553.378,89.974 c 0,-16.227 -13.15,-29.379 -29.369,-29.379 -16.223,0 -29.375,13.152 -29.375,29.379 0,16.213 13.152,29.365 29.375,29.365 16.219,0 29.369,-13.152 29.369,-29.365 z m -0.836,-53.925 29.516,0 0,53.925 c 0,32.04 -25.976,58.023 -58.025,58.023 -32.05,0 -58.028,-25.983 -58.028,-58.023 0,-26.592 17.886,-48.984 42.271,-55.853 27.243,-6.637 39.513,14.521 41.747,20.075 0.232,0.577 0.441,1.206 1.394,1.196 1.064,-0.015 1.108,-1.196 1.108,-1.196" /><path
           id="path3484"
           style="fill:#ffffff;fill-opacity:1;fill-rule:nonzero;stroke:none"
           d="m 41.479,154.723 -11.837,0 0,-93.585 12.156,-0.311 c 24.93,0 40.986,2.268 40.986,47.092 0,42.984 -14.176,46.804 -41.305,46.804 z M 33.485,36.279 0,36.279 l 0,143.28 35.929,0 c 43.506,0 76.503,-7.983 76.503,-71.64 0,-63.044 -34.952,-71.64 -78.947,-71.64" /></g></g></g></svg>