<svg xmlns="http://www.w3.org/2000/svg" viewBox="0 0 597.3 160.24"><defs><style>.cls-1{fill:#0978be;}</style></defs><g id="Layer_2" data-name="Layer 2"><g id="Layer_1-2" data-name="Layer 1"><path class="cls-1" d="M369.29,114.37v45.87H342.55c-.11-1.72-.32-3.46-.32-5.2,0-23.55-.1-47.1,0-70.65.11-26.4,16.12-47.11,40.54-52.71a52.08,52.08,0,0,1,61.92,36.2c8.44,28.79-10.21,59.34-39.65,65-12.19,2.34-24.3-3.17-31.58-14.36-1-1.48-1.91-3-2.86-4.49C370,113.5,369.45,113.48,369.29,114.37Zm-.74-32.13a26,26,0,0,0,25.95,25.88A26.34,26.34,0,0,0,420.78,82.3c.16-13.82-12-26.08-26-26.27C380.51,55.82,368.54,67.77,368.55,82.24Z"/><path class="cls-1" d="M66.25,130.76A2.23,2.23,0,0,1,64,128.54V119c0-24.56.08-49.12,0-73.68C63.93,31,52.32,22.6,38.91,26.92c-6.27,2-10,6.54-11.51,12.67a60.89,60.89,0,0,0-1.59,12.77c-.26,9.29-.19,16.7-.19,26a3.06,3.06,0,0,1-2.76,3.2H2.57c-.14-.17-2.45-.41-2.45-2.64,0-14.4-.74-27,1.44-41.16C4.16,21,13.93,8,31,2.57,47.36-2.62,62.8-.15,75.6,11.79,86.65,22.1,90.67,35.71,91.19,50.44c.18,5.19.06,10.38,0,16.3a.74.74,0,0,0,1.29.5c3.1-3.39,5.61-6.33,8.42-8.95,9.7-9.1,22.84-11.1,34.1-5.27,1.3.68,3.07,2.16,3.1,3.31.22,7.84.17,15.68.15,24A2.21,2.21,0,0,1,135,82.32c-7-3.93-13.93-6.24-21.74-5.74-11,.69-22.14,11.25-22.44,22.13-.26,9.85-.09,19.7-.06,29.83a2.22,2.22,0,0,1-2.21,2.22Z"/><path class="cls-1" d="M560.34,128.77a1.94,1.94,0,0,1-1.89,1.62c-7.58,0-15,.09-22.41-.16-.82,0-2.16-2.21-2.25-3.47-.28-4.14-.11-8.32-.11-12.48,0-1-.78-1.06-1.4-.4l-2.39,3.93c-8.21,13.43-23,18.72-38,13.57-23-7.9-37.62-29.88-35.57-53.37a52.5,52.5,0,0,1,44.1-47.27c30.39-5,59.58,19.21,59.95,49.91.19,15.09,0,30.18,0,45.27A25.73,25.73,0,0,1,560.34,128.77ZM482.46,82A25.7,25.7,0,0,0,508,108.11a26,26,0,0,0,26.31-26,25.93,25.93,0,1,0-51.86-.1Z"/><path class="cls-1" d="M332.05,93.43c-3.75,23.93-22.91,39.85-46.35,39.59-23.19-.26-41.69-16.46-45.25-40.36-1.23-8.31-1.14-16.84-1.31-25.27-.21-10.28.06-20.57-.11-30.85-.06-3.43,1-4.75,4.55-4.62,5.81.22,11.65.26,17.46,0,3.75-.17,4.87,1.11,4.82,4.81-.18,14.6-.26,29.2,0,43.79a45.84,45.84,0,0,0,2.38,14.1c3.3,9.43,10.33,13.16,21.32,12.28,7.51-.61,14.06-6.59,15.89-15a55.63,55.63,0,0,0,1.26-11.29q.21-21.89,0-43.79c0-3.56.79-5.11,4.68-4.91a172.34,172.34,0,0,0,17.46,0c3.93-.2,4.76,1.44,4.67,5C333.34,45,333.7,82.86,332.05,93.43Z"/><path class="cls-1" d="M178.72,47.87a1,1,0,0,0,1.82.67c3.5-3.77,6.38-7.16,9.73-10,10.62-9,22.54-10.69,35.28-5,1.51.68,3.43,2.61,3.48,4,.28,7.6.19,15.21.17,22.91a2.41,2.41,0,0,1-3.29,2.24,144.22,144.22,0,0,0-14-5.1c-12.54-3.5-28.09,4.72-32.5,16.92a18,18,0,0,0-.7,5.87c-.05,14.92-.17,29.84.06,44.75.06,4.2-1.34,5.52-5.41,5.33-5.56-.27-11.14-.26-16.71,0-3.2.13-4.81-.62-4.8-4.14.09-30,.08-62,0-92,0-3.94,1.73-3.56,7.71-3.62,3.63,0,7.36-.06,11,0,5.23.05,7.66-.36,7.92,3.46C178.72,37.61,178.57,43.5,178.72,47.87Z"/><path class="cls-1" d="M597.22,66.5c0,19.57-.09,39.13.08,58.7,0,4-.94,5.7-5.26,5.45-5.8-.33-11.64-.17-17.45-.05-3,.06-4.12-1-4.11-4q.1-60.18,0-120.37c0-3.46,1.33-4.72,4.74-4.63,5.65.17,11.31.25,16.95,0,4.05-.19,5.13,1.5,5.11,5.27C597.16,26.71,597.22,46.61,597.22,66.5Z"/></g></g></svg>