<svg xmlns="http://www.w3.org/2000/svg" width="23.033" height="23.033"><path fill="#4a67b7" d="M0 0h23.033v23.033H0z"/><path d="M13.453 7.41c.386-.013.772-.003 1.16-.003h.16v-2.01c-.208-.02-.423-.05-.64-.06-.396-.02-.792-.04-1.19-.03-.605.013-1.178.16-1.68.52-.573.413-.888.993-1.008 1.678-.05.282-.063.575-.07.862-.01.45-.002.902-.002 1.353v.17H8.26v2.244h1.91v5.644h2.338v-5.634h1.905c.1-.747.194-1.486.294-2.256h-.428c-.543.002-1.788 0-1.788 0s.006-1.113.02-1.596c.02-.662.41-.863.94-.882z" fill="#fff" fill-rule="evenodd"/></svg>
