<svg xmlns="http://www.w3.org/2000/svg" width="23.033" height="23.033"><path fill="#dc5043" d="M0 0h23.033v23.033H0z"/><g fill="#fff"><path d="M9.728 10.622c-.002.03-.004.054-.004.078v1.888h2.62c0 .195-.23.976-.962 1.472-.43.29-.91.424-1.42.457-.36.023-.716-.014-1.062-.124-1.092-.35-1.906-1.338-2.017-2.542-.027-.296-.008-.594.06-.886.324-1.424 1.672-2.478 3.216-2.25.683.1 1.078.385 1.436.692l1.423-1.424c-.118-.085-.387-.36-.868-.636-.718-.415-1.492-.622-2.32-.63-.156-.003-.312.006-.467.013-.274.01-.542.057-.806.124-1.06.27-1.937.825-2.625 1.674-.662.815-1.017 1.75-1.082 2.795-.03.442.005.883.103 1.317.275 1.212.91 2.19 1.913 2.923.775.57 1.65.872 2.61.925.54.03 1.077-.02 1.603-.16.98-.255 1.794-.766 2.406-1.58.885-1.18 1.1-2.69.84-4.123-1.54-.003-3.07-.003-4.602-.003zM20.243 12.02h.05V10.686h-1.707V8.98H17.25v1.706h-1.706v1.336h1.707v1.705h1.336V12.02"/></g></svg>
