<svg xmlns="http://www.w3.org/2000/svg" xmlns:xlink="http://www.w3.org/1999/xlink" width="19.814" height="22.787"><defs><clipPath id="b"><use width="1" height="1" xlink:href="#a" overflow="visible"/></clipPath></defs><g transform="matrix(1.33554 0 0 1.33554 51.355 -7.328)" fill="gray"><defs><path id="a" d="M-38.453 5.486h14.836v17.662h-14.836z"/></defs><path d="M-26.12 17.466c-.56 0-1.075.19-1.497.5l-5.795-3.545c.02-.132.04-.265.04-.403 0-.135-.018-.268-.04-.4l5.795-3.545c.422.308.937.496 1.5.496 1.404 0 2.54-1.136 2.54-2.54 0-1.403-1.136-2.54-2.54-2.54-1.404 0-2.542 1.137-2.542 2.54 0 .136.02.27.04.402l-5.794 3.544c-.42-.308-.934-.496-1.497-.496-1.405 0-2.543 1.136-2.543 2.54 0 1.404 1.138 2.542 2.542 2.542.562 0 1.074-.188 1.496-.496l5.795 3.542c-.02.132-.04.265-.04.403 0 1.403 1.14 2.54 2.543 2.54 1.404 0 2.54-1.14 2.54-2.54 0-1.406-1.14-2.544-2.543-2.544zm0 0" clip-path="url(#b)"/></g></svg>
