<svg xmlns="http://www.w3.org/2000/svg" width="23.033" height="23.033"><path fill="#1da0f2" d="M0 0h23.033v23.033H0z"/><path d="M9.367 14.447c-1.36-.047-2.21-1.024-2.437-1.817.38.072.752.058 1.123-.033.01-.002.02-.01.037-.017-.737-.172-1.306-.566-1.7-1.202-.263-.422-.388-.884-.384-1.392.367.197.752.306 1.165.317-.553-.4-.925-.92-1.077-1.59-.15-.665-.053-1.3.28-1.896 1.42 1.67 3.214 2.586 5.403 2.737-.015-.104-.032-.195-.042-.286-.073-.616.05-1.192.382-1.712.417-.654 1.012-1.06 1.776-1.184.88-.145 1.65.107 2.293.73.043.04.08.055.14.04.538-.115 1.046-.31 1.523-.584l.034-.018c0-.002.01 0 .018 0-.207.61-.584 1.078-1.12 1.424.506-.055.99-.19 1.457-.392.01.004.01.008.01.012-.1.13-.197.265-.3.392-.278.343-.598.644-.953.905-.03.023-.045.045-.043.083.015.388 0 .777-.048 1.163-.1.814-.327 1.59-.674 2.332-.36.765-.827 1.457-1.416 2.065-.997 1.03-2.2 1.696-3.6 2.005-.48.105-.966.16-1.458.173-1.51.046-2.907-.33-4.19-1.124-.018-.01-.034-.02-.062-.04.914.1 1.783-.018 2.62-.36.444-.184.855-.423 1.245-.728z" fill="#fff" fill-rule="evenodd"/></svg>
