<svg xmlns="http://www.w3.org/2000/svg" width="23.033" height="23.033"><path fill="#6f3a83" d="M0 0h23.033v23.033H0z"/><path d="M7.787 19.638l1.568-1.61 1.475-1.514c.022-.022.052-.035.084-.033 1.584.045 3.17-.083 4.742-.382 1.202-.267 2.714-1.716 3.008-2.88.493-2.256.493-4.542 0-6.796-.294-1.165-1.807-2.613-3.008-2.882-2.747-.52-5.532-.52-8.28 0-1.2.27-2.712 1.717-3.008 2.882-.49 2.254-.49 4.54 0 6.795.296 1.164 1.808 2.613 3.008 2.88.053.012.092.058.092.113v3.302c0 .165.202.245.317.126zm3.606-14.516c.043-.002.085 0 .128 0 2.13.06.13.005.01 0 2.212.065 4.03 1.535 4.42 3.724.067.373.09.754.12 1.133.012.16-.08.31-.25.312-.178.002-.258-.146-.27-.306-.022-.315-.038-.63-.082-.944-.228-1.65-1.545-3.017-3.188-3.31-.247-.044-.5-.055-.75-.08-.16-.017-.367-.028-.402-.224-.03-.165.11-.297.267-.306zm2.118 4.312c-.104.002-.063 0-.022-.002-.17-.006-.262-.105-.28-.267-.015-.118-.024-.238-.053-.354-.055-.226-.176-.436-.367-.576-.09-.066-.192-.114-.3-.144-.135-.04-.277-.03-.413-.063-.148-.035-.228-.155-.206-.293.02-.125.143-.223.28-.214.86.062 1.474.507 1.562 1.518.008.07.013.147 0 .215-.026.11-.105.168-.185.18h-.013zm-.533-2.313c-.264-.128-.55-.208-.838-.256-.127-.02-.255-.034-.383-.05-.153-.023-.235-.12-.228-.272.007-.142.11-.244.265-.235.508.03 1 .14 1.45.378.92.487 1.446 1.256 1.6 2.282.007.046.017.092.02.14.01.113.015.23.023.38 0 .03-.008.093-.02.155-.06.222-.397.25-.476.025-.022-.067-.026-.143-.026-.214 0-.47-.103-.94-.34-1.347-.242-.42-.613-.77-1.05-.985zM7.402 8.95c-.22-.447-.406-.913-.596-1.374-.173-.422.083-.858.35-1.176.25-.298.575-.526.925-.694.273-.132.543-.055.743.176.43.5.828 1.027 1.148 1.607.198.357.145.793-.213 1.036-.087.06-.167.128-.248.195-.072.06-.14.118-.187.198-.09.145-.094.316-.036.473.44 1.214 1.184 2.155 2.404 2.663.196.08.392.175.617.15.377-.045.498-.458.762-.674.257-.21.586-.214.864-.038.28.175.548.364.815.555.26.187.523.37.766.584.233.206.314.476.182.754-.24.51-.59.934-1.094 1.205-.142.076-.313.1-.473.15-.184-.056-.36-.094-.523-.162-1.695-.703-3.254-1.61-4.49-3-.7-.79-1.25-1.683-1.715-2.627z" fill="#fff"/></svg>
