<svg xmlns="http://www.w3.org/2000/svg" width="23.033" height="23.033"><path fill="#12af0a" d="M0 0h23.033V23.03H0z"/><g fill="#fefefe" fill-rule="evenodd"><path d="M18.778 11.15c-.098-3.827-3.25-6.9-7.13-6.9-3.832 0-6.958 3.002-7.125 6.77-.003.102-.006.205-.006.31 0 1.338.374 2.587 1.022 3.655l-1.286 3.797 3.95-1.256c1.02.562 2.196.882 3.445.882 3.938 0 7.13-3.168 7.13-7.08 0-.06 0-.12-.002-.18zm-7.13 6.13c-1.218 0-2.35-.36-3.298-.986l-2.304.735.75-2.212c-.72-.98-1.144-2.186-1.144-3.49 0-.193.01-.386.03-.577.294-3.01 2.86-5.37 5.967-5.37 3.148 0 5.735 2.42 5.976 5.485.013.153.02.307.02.464 0 3.28-2.69 5.95-5.997 5.95z"/><path d="M14.918 12.76c-.177-.088-1.035-.51-1.196-.566-.16-.06-.277-.087-.394.087-.117.174-.454.565-.554.68-.104.115-.204.13-.382.043-.173-.087-.738-.268-1.405-.862-.517-.456-.87-1.024-.972-1.197-.1-.174-.01-.267.077-.354.08-.08.174-.205.265-.305l.063-.083c.04-.064.07-.124.11-.208.06-.116.03-.217-.013-.303-.044-.086-.394-.94-.54-1.288-.145-.348-.29-.287-.395-.287-.1 0-.217-.017-.334-.017-.117 0-.307.043-.468.217-.16.174-.61.594-.61 1.45 0 .2.035.4.09.59.176.61.557 1.115.624 1.202.086.114 1.208 1.924 2.984 2.622 1.78.69 1.78.46 2.1.43.32-.027 1.035-.418 1.18-.825.146-.404.146-.75.102-.825-.042-.07-.16-.115-.332-.2z"/></g></svg>
