<?xml version="1.0" encoding="utf-8"?>
<!-- Generator: Adobe Illustrator 16.0.0, SVG Export Plug-In . SVG Version: 6.00 Build 0)  -->
<!DOCTYPE svg PUBLIC "-//W3C//DTD SVG 1.1//EN" "http://www.w3.org/Graphics/SVG/1.1/DTD/svg11.dtd">
<svg version="1.1" id="Layer_1" xmlns="http://www.w3.org/2000/svg" xmlns:xlink="http://www.w3.org/1999/xlink" x="0px" y="0px"
	 width="12.831px" height="11.96px" viewBox="0 0 12.831 11.96" enable-background="new 0 0 12.831 11.96" xml:space="preserve">
<g>
	<path fill="#FFFFFF" d="M12.414,6.093c0.051,0.059,0.076,0.126,0.076,0.202s-0.025,0.144-0.076,0.202
		c-0.008,0.008-0.055,0.057-0.141,0.146s-0.205,0.207-0.357,0.352s-0.337,0.308-0.554,0.489s-0.458,0.366-0.724,0.554
		c-0.156,0.113-0.313,0.221-0.472,0.322S9.852,8.557,9.695,8.645s-0.313,0.17-0.469,0.246S8.916,9.039,8.764,9.105
		c-0.195,0.082-0.39,0.153-0.583,0.214S7.795,9.43,7.604,9.471s-0.38,0.072-0.565,0.094S6.67,9.597,6.49,9.597
		S6.128,9.586,5.942,9.565S5.568,9.512,5.377,9.471S4.993,9.379,4.8,9.319S4.412,9.187,4.217,9.105
		C4.064,9.039,3.91,8.967,3.754,8.891S3.441,8.733,3.285,8.645S2.972,8.462,2.813,8.361S2.498,8.152,2.342,8.039
		C2.076,7.851,1.835,7.667,1.618,7.485S1.217,7.14,1.064,6.996S0.793,6.734,0.707,6.644S0.574,6.505,0.566,6.498
		C0.516,6.439,0.49,6.372,0.49,6.295s0.025-0.144,0.076-0.202c0.008-0.008,0.055-0.057,0.141-0.146s0.205-0.206,0.357-0.349
		s0.337-0.305,0.554-0.486s0.458-0.368,0.724-0.56c0.156-0.113,0.313-0.22,0.472-0.319s0.315-0.194,0.472-0.284
		S3.598,3.776,3.754,3.7s0.311-0.147,0.463-0.214C4.412,3.404,4.606,3.333,4.8,3.272S5.186,3.161,5.377,3.12s0.38-0.072,0.565-0.094
		S6.311,2.994,6.49,2.994s0.362,0.011,0.548,0.032S7.412,3.079,7.604,3.12s0.384,0.092,0.577,0.152s0.388,0.132,0.583,0.214
		C8.916,3.552,9.07,3.624,9.227,3.7s0.313,0.159,0.469,0.249s0.313,0.185,0.472,0.284s0.315,0.206,0.472,0.319
		c0.266,0.191,0.507,0.378,0.724,0.56s0.401,0.344,0.554,0.486s0.271,0.259,0.357,0.349S12.406,6.085,12.414,6.093z M10.281,7.558
		c0.172-0.121,0.334-0.243,0.486-0.366s0.292-0.239,0.419-0.349s0.24-0.211,0.34-0.305s0.183-0.174,0.249-0.24
		c-0.066-0.07-0.149-0.152-0.249-0.246s-0.213-0.195-0.34-0.305s-0.267-0.225-0.419-0.346s-0.314-0.244-0.486-0.369
		c-0.16-0.113-0.333-0.229-0.519-0.346s-0.384-0.23-0.595-0.34c0.105,0.207,0.186,0.424,0.24,0.65S9.49,5.457,9.49,5.695
		c0,0.414-0.079,0.804-0.237,1.169S8.88,7.547,8.608,7.819S8.02,8.304,7.656,8.46S6.904,8.695,6.49,8.695S5.688,8.617,5.324,8.46
		S4.644,8.09,4.372,7.819s-0.486-0.59-0.645-0.955S3.49,6.109,3.49,5.695c0-0.238,0.027-0.471,0.082-0.697s0.135-0.443,0.24-0.65
		C3.602,4.457,3.403,4.57,3.218,4.687S2.859,4.919,2.699,5.033C2.527,5.158,2.365,5.281,2.213,5.402S1.921,5.638,1.794,5.748
		s-0.24,0.211-0.34,0.305S1.271,6.228,1.205,6.298c0.066,0.066,0.149,0.146,0.249,0.24s0.213,0.195,0.34,0.305
		s0.267,0.226,0.419,0.349s0.314,0.245,0.486,0.366c0.23,0.164,0.489,0.331,0.776,0.501s0.593,0.324,0.917,0.463
		s0.663,0.252,1.017,0.34S6.123,8.994,6.49,8.994S7.218,8.95,7.571,8.862s0.692-0.201,1.017-0.34s0.63-0.293,0.917-0.463
		S10.051,7.722,10.281,7.558z M8.037,3.861c-0.25-0.082-0.504-0.146-0.762-0.193s-0.52-0.07-0.785-0.07s-0.527,0.023-0.785,0.07
		S5.193,3.779,4.943,3.861C4.811,3.974,4.69,4.1,4.583,4.239s-0.197,0.286-0.27,0.442s-0.128,0.32-0.167,0.492
		S4.088,5.519,4.088,5.695c0,0.332,0.063,0.644,0.19,0.935s0.299,0.545,0.516,0.762S5.265,7.78,5.556,7.907s0.603,0.19,0.935,0.19
		s0.644-0.063,0.935-0.19S7.97,7.608,8.187,7.391S8.575,6.92,8.702,6.629s0.19-0.603,0.19-0.935c0-0.176-0.02-0.35-0.059-0.521
		S8.739,4.837,8.667,4.681s-0.162-0.304-0.27-0.442S8.17,3.974,8.037,3.861z"/>
</g>
</svg>
