<svg xmlns="http://www.w3.org/2000/svg" width="160" height="183" viewBox="0 0 182 208"><path fill="#FFF" d="M91 7.067l86.744 48.47v96.932L91 200.933 4.255 152.47V55.535L91 7.066zm0 181.826l75.967-42.447v-17.61l-91.952 51.122L91 188.893zm-26.78-14.965l102.747-57.123V95.777L46.6 164.08l17.62 9.848zM35.863 158.08l131.104-74.397V67.575L20.42 149.453l15.443 8.627zM91 65.567l29.006 16.203 15.398-8.603L91 48.36 41.207 76.178v49.62l15.395-8.605V84.78L91 65.568zM67.382 90.803v20.37l41.846-23.38L91 77.607 67.382 90.803zm-52.35 49.62l15.395-8.604V70.156L91 36.317l55.182 30.828 15.396-8.6L91 19.11 15.03 61.555v78.87z"/></svg>
