<?xml version="1.0" encoding="utf-8"?>
<!-- Generator: Adobe Illustrator 16.0.0, SVG Export Plug-In . SVG Version: 6.00 Build 0)  -->
<!DOCTYPE svg PUBLIC "-//W3C//DTD SVG 1.1//EN" "http://www.w3.org/Graphics/SVG/1.1/DTD/svg11.dtd">
<svg version="1.1" id="Layer_1" xmlns="http://www.w3.org/2000/svg" xmlns:xlink="http://www.w3.org/1999/xlink" x="0px" y="0px"
	 width="28.872px" height="28.871px" viewBox="-134.936 176.75 28.872 28.871"
	 enable-background="new -134.936 176.75 28.872 28.871" xml:space="preserve">
<path fill="#A5A5A5" d="M-134.936,176.75v28.872h28.872V176.75H-134.936z M-116.419,186.034c-0.081,0-0.141,0-0.2,0
	c-0.486,0-0.97-0.012-1.454,0.004c-0.664,0.024-1.156,0.277-1.18,1.106c-0.016,0.605-0.023,2-0.023,2s1.56,0.003,2.239,0
	c0.172,0,0.345,0,0.537,0c-0.126,0.965-0.245,1.892-0.368,2.828h-2.389v7.062h-2.929v-7.073h-2.396v-2.814h2.411v-0.212
	c0-0.566-0.012-1.132,0.002-1.696c0.009-0.359,0.025-0.727,0.088-1.081c0.15-0.858,0.545-1.586,1.265-2.104
	c0.627-0.449,1.346-0.635,2.105-0.65c0.498-0.012,0.995,0.014,1.492,0.036c0.271,0.013,0.541,0.05,0.8,0.075V186.034z"/>
</svg>
