<?xml version="1.0" encoding="utf-8"?>
<!-- Generator: Adobe Illustrator 16.0.0, SVG Export Plug-In . SVG Version: 6.00 Build 0)  -->
<!DOCTYPE svg PUBLIC "-//W3C//DTD SVG 1.1//EN" "http://www.w3.org/Graphics/SVG/1.1/DTD/svg11.dtd">
<svg version="1.1" id="Layer_1" xmlns="http://www.w3.org/2000/svg" xmlns:xlink="http://www.w3.org/1999/xlink" x="0px" y="0px"
	 width="28.872px" height="28.871px" viewBox="126.314 176.75 28.872 28.871" enable-background="new 126.314 176.75 28.872 28.871"
	 xml:space="preserve">
<path fill="#A5A5A5" d="M126.314,176.75v28.872h28.872V176.75H126.314z M143.223,195.236c-0.767,1.02-1.787,1.66-3.016,1.981
	c-0.659,0.173-1.333,0.236-2.01,0.199c-1.203-0.067-2.3-0.447-3.272-1.16c-1.257-0.92-2.054-2.146-2.398-3.664
	c-0.122-0.544-0.165-1.097-0.129-1.651c0.082-1.309,0.527-2.481,1.355-3.502c0.863-1.064,1.965-1.761,3.29-2.099
	c0.331-0.085,0.667-0.144,1.011-0.157c0.193-0.009,0.39-0.02,0.586-0.018c1.037,0.011,2.008,0.271,2.907,0.791
	c0.603,0.348,0.94,0.691,1.086,0.797c-0.603,0.605-1.189,1.191-1.782,1.785c-0.449-0.385-0.944-0.742-1.801-0.868
	c-1.937-0.285-3.627,1.037-4.033,2.821c-0.084,0.367-0.108,0.74-0.074,1.111c0.139,1.51,1.158,2.748,2.527,3.188
	c0.435,0.138,0.879,0.184,1.33,0.154c0.641-0.041,1.244-0.209,1.782-0.572c0.916-0.622,1.205-1.602,1.205-1.846
	c-0.169,0-3.282,0-3.282,0s-0.002-1.617-0.002-2.365c0-0.03,0.004-0.061,0.006-0.098c1.922,0,3.837,0,5.767,0.002
	C144.602,191.865,144.333,193.757,143.223,195.236z M151.75,190.205v1.551v0.063h-0.061h-2.077v2.078v0.061h-0.062H148h-0.062
	v-0.061v-2.078h-2.077h-0.06v-0.063v-1.551v-0.061h0.06h2.077v-2.078v-0.062H148h1.552h0.062v0.062v2.078h2.077h0.061V190.205z"/>
</svg>
