<?xml version="1.0" encoding="utf-8"?>
<!-- Generator: Adobe Illustrator 16.0.0, SVG Export Plug-In . SVG Version: 6.00 Build 0)  -->
<!DOCTYPE svg PUBLIC "-//W3C//DTD SVG 1.1//EN" "http://www.w3.org/Graphics/SVG/1.1/DTD/svg11.dtd">
<svg version="1.1" id="Layer_1" xmlns="http://www.w3.org/2000/svg" xmlns:xlink="http://www.w3.org/1999/xlink" x="0px" y="0px"
	 width="28.872px" height="28.871px" viewBox="129.73 250.75 28.872 28.871" enable-background="new 129.73 250.75 28.872 28.871"
	 xml:space="preserve">
<g>
	<path fill="#A5A5A5" d="M144.167,261.612c-1.972,0-3.575,1.604-3.575,3.575c0,1.97,1.604,3.574,3.575,3.574
		c1.971,0,3.574-1.604,3.574-3.574C147.742,263.215,146.138,261.612,144.167,261.612z"/>
	<path fill="#A5A5A5" d="M148.687,256.493h-9.04c-2.302,0-4.174,1.872-4.174,4.174v9.04c0,2.302,1.872,4.174,4.174,4.174h9.04
		c2.302,0,4.174-1.872,4.174-4.174v-9.04C152.861,258.365,150.989,256.493,148.687,256.493z M144.167,270.56
		c-2.964,0-5.374-2.41-5.374-5.373c0-2.964,2.41-5.374,5.374-5.374c2.963,0,5.373,2.41,5.373,5.374
		C149.541,268.15,147.13,270.56,144.167,270.56z M149.77,260.797c-0.712,0-1.291-0.578-1.291-1.291c0-0.714,0.579-1.292,1.291-1.292
		c0.714,0,1.292,0.578,1.292,1.292C151.062,260.219,150.484,260.797,149.77,260.797z"/>
	<path fill="#A5A5A5" d="M129.731,250.75v28.872h28.871V250.75H129.731z M154.66,269.707c0,3.294-2.679,5.973-5.973,5.973h-9.04
		c-3.294,0-5.973-2.679-5.973-5.973v-9.04c0-3.294,2.679-5.973,5.973-5.973h9.04c3.294,0,5.973,2.679,5.973,5.973V269.707z"/>
</g>
</svg>
