<?xml version="1.0" encoding="utf-8"?>
<!-- Generator: Adobe Illustrator 16.0.0, SVG Export Plug-In . SVG Version: 6.00 Build 0)  -->
<!DOCTYPE svg PUBLIC "-//W3C//DTD SVG 1.1//EN" "http://www.w3.org/Graphics/SVG/1.1/DTD/svg11.dtd">
<svg version="1.1" id="Layer_1" xmlns="http://www.w3.org/2000/svg" xmlns:xlink="http://www.w3.org/1999/xlink" x="0px" y="0px"
	 width="28.872px" height="28.871px" viewBox="5.814 176.75 28.872 28.871" enable-background="new 5.814 176.75 28.872 28.871"
	 xml:space="preserve">
<path fill="#A5A5A5" d="M5.813,176.75v28.872h28.873V176.75H5.813z M16.241,198.429h-3.013v-9.678h3.013V198.429z M14.736,187.429
	c-0.966,0-1.746-0.782-1.746-1.745c0-0.961,0.78-1.744,1.746-1.744c0.962,0,1.743,0.783,1.743,1.744
	C16.479,186.647,15.698,187.429,14.736,187.429z M27.51,198.429h-3.006v-4.704c0-1.123-0.023-2.566-1.563-2.566
	c-1.566,0-1.806,1.222-1.806,2.482v4.788h-3.006v-9.678h2.885v1.323h0.039c0.402-0.762,1.385-1.563,2.849-1.563
	c3.045,0,3.608,2.003,3.608,4.609V198.429z"/>
</svg>
