<?xml version="1.0" encoding="utf-8"?>
<!-- Generator: Adobe Illustrator 16.0.0, SVG Export Plug-In . SVG Version: 6.00 Build 0)  -->
<!DOCTYPE svg PUBLIC "-//W3C//DTD SVG 1.1//EN" "http://www.w3.org/Graphics/SVG/1.1/DTD/svg11.dtd">
<svg version="1.1" id="Layer_1" xmlns="http://www.w3.org/2000/svg" xmlns:xlink="http://www.w3.org/1999/xlink" x="0px" y="0px"
	 width="28.872px" height="28.871px" viewBox="65.064 176.75 28.872 28.871" enable-background="new 65.064 176.75 28.872 28.871"
	 xml:space="preserve">
<path fill="#A5A5A5" d="M65.065,176.75v28.872h28.871V176.75H65.065z M84.151,192.983c-1.598,1.982-4.189,2.115-5.386,0.896
	c-0.091-0.092-0.164-0.201-0.255-0.313c-0.014,0.045-0.025,0.082-0.035,0.121c-0.574,2.25-0.639,2.748-1.229,3.793
	c-0.281,0.496-0.598,0.967-0.949,1.416c-0.039,0.052-0.076,0.117-0.155,0.102c-0.086-0.02-0.093-0.096-0.103-0.166
	c-0.096-0.684-0.146-1.369-0.125-2.059c0.03-0.899,0.142-1.209,1.301-6.081c0.017-0.074-0.002-0.136-0.027-0.203
	c-0.277-0.749-0.332-1.509-0.09-2.277c0.523-1.661,2.408-1.79,2.738-0.418c0.203,0.849-0.334,1.958-0.746,3.599
	c-0.342,1.354,1.252,2.316,2.613,1.328c1.256-0.91,1.744-3.095,1.65-4.643c-0.182-3.086-3.566-3.753-5.713-2.76
	c-2.461,1.138-3.021,4.188-1.91,5.584c0.141,0.177,0.25,0.285,0.203,0.465c-0.072,0.279-0.135,0.561-0.212,0.838
	c-0.058,0.207-0.229,0.282-0.439,0.197c-0.409-0.166-0.751-0.428-1.028-0.771c-0.943-1.169-1.213-3.479,0.035-5.438
	c1.381-2.168,3.953-3.046,6.301-2.779c2.805,0.319,4.578,2.235,4.91,4.409C85.651,188.815,85.542,191.256,84.151,192.983z"/>
</svg>
