<?xml version="1.0" encoding="utf-8"?>
<!-- Generator: Adobe Illustrator 16.0.0, SVG Export Plug-In . SVG Version: 6.00 Build 0)  -->
<!DOCTYPE svg PUBLIC "-//W3C//DTD SVG 1.1//EN" "http://www.w3.org/Graphics/SVG/1.1/DTD/svg11.dtd">
<svg version="1.1" id="Layer_1" xmlns="http://www.w3.org/2000/svg" xmlns:xlink="http://www.w3.org/1999/xlink" x="0px" y="0px"
	 width="28.872px" height="28.871px" viewBox="-61.436 176.75 28.872 28.871" enable-background="new -61.436 176.75 28.872 28.871"
	 xml:space="preserve">
<path fill="#A5A5A5" d="M-61.437,176.75v28.872h28.873V176.75H-61.437z M-49.336,190.885c0,0.139-0.019,0.271-0.04,0.404
	l5.795,3.545c0.422-0.311,0.937-0.5,1.497-0.5c1.404,0,2.542,1.139,2.543,2.543c0,1.4-1.136,2.539-2.54,2.539
	c-1.404,0-2.542-1.135-2.542-2.539c0-0.139,0.019-0.271,0.04-0.402l-5.795-3.543c-0.422,0.309-0.934,0.496-1.497,0.496
	c-1.404,0-2.542-1.139-2.542-2.541c0-1.404,1.138-2.541,2.542-2.541c0.563,0,1.078,0.188,1.497,0.496l5.795-3.545
	c-0.021-0.133-0.04-0.266-0.04-0.4c0-1.404,1.138-2.541,2.542-2.541c1.404,0,2.54,1.137,2.54,2.541c0,1.402-1.136,2.539-2.54,2.539
	c-0.563,0-1.078-0.188-1.5-0.496l-5.795,3.545C-49.354,190.618-49.336,190.75-49.336,190.885z"/>
</svg>
