<?xml version="1.0" encoding="utf-8"?>
<!-- Generator: Adobe Illustrator 16.0.0, SVG Export Plug-In . SVG Version: 6.00 Build 0)  -->
<!DOCTYPE svg PUBLIC "-//W3C//DTD SVG 1.1//EN" "http://www.w3.org/Graphics/SVG/1.1/DTD/svg11.dtd">
<svg version="1.1" id="Layer_1" xmlns="http://www.w3.org/2000/svg" xmlns:xlink="http://www.w3.org/1999/xlink" x="0px" y="0px"
	 width="28.872px" height="28.871px" viewBox="-134.936 249.25 28.872 28.871"
	 enable-background="new -134.936 249.25 28.872 28.871" xml:space="preserve">
<path fill="#A5A5A5" d="M-134.936,249.25v28.872h28.872V249.25H-134.936z M-112.439,259.248c-0.348,0.43-0.748,0.807-1.193,1.135
	c-0.038,0.027-0.056,0.055-0.054,0.103c0.018,0.487-0.001,0.974-0.061,1.458c-0.126,1.02-0.411,1.993-0.846,2.923
	c-0.45,0.959-1.036,1.827-1.774,2.588c-1.25,1.292-2.757,2.126-4.512,2.515c-0.602,0.131-1.212,0.199-1.829,0.217
	c-1.893,0.056-3.643-0.415-5.253-1.41c-0.021-0.012-0.041-0.027-0.077-0.051c1.146,0.125,2.235-0.022,3.284-0.452
	c0.556-0.229,1.072-0.529,1.561-0.912c-1.706-0.06-2.772-1.284-3.055-2.278c0.475,0.09,0.942,0.072,1.407-0.042
	c0.012-0.002,0.024-0.011,0.047-0.021c-0.924-0.215-1.637-0.709-2.132-1.506c-0.329-0.529-0.486-1.109-0.481-1.746
	c0.461,0.246,0.943,0.384,1.461,0.397c-0.695-0.5-1.161-1.155-1.351-1.991c-0.189-0.836-0.067-1.629,0.352-2.379
	c1.778,2.094,4.027,3.242,6.771,3.432c-0.019-0.131-0.04-0.244-0.053-0.359c-0.091-0.771,0.063-1.492,0.48-2.146
	c0.522-0.818,1.268-1.327,2.226-1.483c1.104-0.181,2.068,0.134,2.874,0.915c0.054,0.052,0.099,0.068,0.175,0.052
	c0.675-0.146,1.311-0.39,1.91-0.733c0.014-0.008,0.029-0.017,0.043-0.022c0.003-0.002,0.008-0.001,0.022-0.001
	c-0.26,0.764-0.733,1.352-1.406,1.786c0.636-0.069,1.243-0.238,1.828-0.492c0.005,0.005,0.009,0.011,0.013,0.015
	C-112.187,258.921-112.309,259.089-112.439,259.248z"/>
</svg>
