<?xml version="1.0" encoding="utf-8"?>
<!-- Generator: Adobe Illustrator 16.0.0, SVG Export Plug-In . SVG Version: 6.00 Build 0)  -->
<!DOCTYPE svg PUBLIC "-//W3C//DTD SVG 1.1//EN" "http://www.w3.org/Graphics/SVG/1.1/DTD/svg11.dtd">
<svg version="1.1" id="Layer_1" xmlns="http://www.w3.org/2000/svg" xmlns:xlink="http://www.w3.org/1999/xlink" x="0px" y="0px"
	 width="28.872px" height="28.871px" viewBox="5.814 251.5 28.872 28.871" enable-background="new 5.814 251.5 28.872 28.871"
	 xml:space="preserve">
<g>
	<path fill="#A5A5A5" d="M22.749,263.326c0.023-0.001,0.025-0.002,0.016-0.002c0.102-0.014,0.201-0.086,0.232-0.225
		c0.021-0.086,0.012-0.18,0.004-0.27c-0.109-1.268-0.879-1.824-1.957-1.902c-0.172-0.013-0.326,0.11-0.352,0.268
		c-0.029,0.173,0.072,0.323,0.258,0.368c0.17,0.042,0.348,0.028,0.518,0.077c0.135,0.039,0.262,0.099,0.375,0.182
		c0.24,0.175,0.393,0.438,0.461,0.723c0.035,0.146,0.047,0.297,0.064,0.444c0.023,0.203,0.139,0.328,0.352,0.335
		C22.668,263.326,22.618,263.328,22.749,263.326z"/>
	<path fill="#A5A5A5" d="M24.301,266.601c-0.336-0.239-0.672-0.477-1.021-0.696s-0.762-0.217-1.084,0.047
		c-0.332,0.271-0.484,0.788-0.955,0.845c-0.283,0.031-0.529-0.086-0.773-0.188c-1.529-0.636-2.461-1.815-3.014-3.336
		c-0.072-0.197-0.066-0.411,0.045-0.593c0.061-0.101,0.145-0.174,0.234-0.248c0.102-0.084,0.201-0.17,0.311-0.244
		c0.449-0.305,0.516-0.852,0.268-1.299c-0.4-0.728-0.898-1.389-1.438-2.016c-0.252-0.289-0.59-0.386-0.932-0.221
		c-0.438,0.211-0.844,0.497-1.159,0.871c-0.335,0.398-0.655,0.943-0.438,1.473c0.237,0.579,0.471,1.163,0.746,1.725
		c0.582,1.184,1.273,2.303,2.152,3.293c1.549,1.742,3.502,2.88,5.627,3.761c0.205,0.085,0.424,0.132,0.656,0.202
		c0.201-0.062,0.416-0.092,0.594-0.188c0.633-0.34,1.07-0.87,1.371-1.511c0.166-0.35,0.063-0.688-0.229-0.943
		C24.958,267.065,24.629,266.835,24.301,266.601z"/>
	<path fill="#A5A5A5" d="M23.821,263.349c0,0.09,0.006,0.185,0.033,0.269c0.098,0.282,0.521,0.247,0.596-0.032
		c0.018-0.076,0.021-0.158,0.025-0.192c-0.01-0.19-0.018-0.335-0.027-0.479c-0.004-0.058-0.02-0.115-0.027-0.174
		c-0.193-1.286-0.852-2.25-2.004-2.859c-0.566-0.301-1.182-0.438-1.818-0.475c-0.193-0.011-0.324,0.117-0.334,0.295
		c-0.008,0.189,0.096,0.313,0.287,0.339c0.16,0.022,0.32,0.038,0.479,0.064c0.361,0.06,0.719,0.159,1.051,0.321
		c0.545,0.269,1.012,0.711,1.314,1.235C23.692,262.173,23.821,262.761,23.821,263.349z"/>
	<path fill="#A5A5A5" d="M20.305,257.922C20.647,257.933,22.76,257.992,20.305,257.922L20.305,257.922z"/>
	<path fill="#A5A5A5" d="M20.264,257.921c-0.002,0-0.004,0-0.008,0c-0.055,0-0.107-0.002-0.162,0
		c-0.197,0.01-0.371,0.176-0.334,0.383c0.043,0.246,0.303,0.259,0.502,0.279c0.314,0.033,0.631,0.047,0.941,0.104
		c2.059,0.367,3.709,2.078,3.996,4.148c0.055,0.392,0.076,0.789,0.104,1.184c0.016,0.199,0.115,0.386,0.338,0.383
		c0.215-0.002,0.328-0.191,0.313-0.393c-0.037-0.475-0.066-0.953-0.15-1.42C25.317,259.846,23.038,258.004,20.264,257.921z"/>
	<path fill="#A5A5A5" d="M5.813,251.5v28.872h28.873V251.5H5.813z M29.209,268.068c-0.369,1.46-2.264,3.275-3.771,3.611
		c-1.971,0.375-3.959,0.535-5.943,0.479c-0.039-0.002-0.078,0.015-0.105,0.042c-0.281,0.289-1.848,1.896-1.848,1.896l-1.967,2.02
		c-0.145,0.148-0.398,0.048-0.398-0.158v-4.14c0-0.067-0.049-0.126-0.115-0.14h-0.002c-1.503-0.336-3.399-2.152-3.77-3.612
		c-0.614-2.826-0.614-5.69,0-8.517c0.371-1.461,2.265-3.276,3.77-3.612c3.445-0.654,6.938-0.654,10.379,0
		c1.508,0.336,3.402,2.151,3.771,3.612C29.827,262.376,29.827,265.241,29.209,268.068z"/>
</g>
</svg>
