<?xml version="1.0" encoding="utf-8"?>
<!-- Generator: Adobe Illustrator 16.0.0, SVG Export Plug-In . SVG Version: 6.00 Build 0)  -->
<!DOCTYPE svg PUBLIC "-//W3C//DTD SVG 1.1//EN" "http://www.w3.org/Graphics/SVG/1.1/DTD/svg11.dtd">
<svg version="1.1" id="Layer_1" xmlns="http://www.w3.org/2000/svg" xmlns:xlink="http://www.w3.org/1999/xlink" x="0px" y="0px"
	 width="28.872px" height="28.871px" viewBox="-61.436 250.25 28.872 28.871" enable-background="new -61.436 250.25 28.872 28.871"
	 xml:space="preserve">
<g>
	<path fill="#A5A5A5" d="M-61.436,250.25v28.871h28.871V250.25H-61.436z M-46.834,273.325c-1.564,0-3.038-0.4-4.318-1.104
		l-4.951,1.573l1.61-4.758c-0.812-1.34-1.28-2.904-1.28-4.584c0-0.13,0.004-0.259,0.008-0.389c0.209-4.721,4.127-8.484,8.932-8.484
		c4.863,0,8.814,3.852,8.936,8.647c0.004,0.075,0.004,0.149,0.004,0.226C-37.895,269.354-41.896,273.325-46.834,273.325z"/>
	<path fill="#A5A5A5" d="M-46.834,256.993c-3.896,0-7.111,2.959-7.479,6.734c-0.026,0.238-0.039,0.48-0.039,0.725
		c0,1.633,0.533,3.144,1.433,4.373l-0.938,2.771l2.889-0.922c1.188,0.783,2.607,1.236,4.135,1.236c4.143,0,7.518-3.346,7.518-7.459
		c0-0.197-0.009-0.391-0.025-0.582C-39.645,260.027-42.887,256.993-46.834,256.993z M-42.45,267.529
		c-0.18,0.511-1.075,1.001-1.478,1.034c-0.401,0.038-0.401,0.326-2.633-0.54c-2.226-0.875-3.633-3.144-3.74-3.286
		c-0.084-0.109-0.561-0.74-0.783-1.507c-0.068-0.239-0.113-0.49-0.113-0.741c0-1.07,0.565-1.598,0.766-1.816
		c0.201-0.217,0.44-0.271,0.586-0.271c0.147,0,0.293,0.021,0.42,0.021c0.13,0,0.314-0.076,0.494,0.359
		c0.184,0.436,0.623,1.508,0.678,1.616s0.092,0.233,0.018,0.38c-0.051,0.105-0.089,0.18-0.139,0.26
		c-0.025,0.033-0.05,0.066-0.08,0.104c-0.113,0.126-0.23,0.28-0.331,0.381c-0.108,0.108-0.222,0.226-0.097,0.444
		c0.126,0.217,0.57,0.929,1.218,1.502c0.837,0.744,1.545,0.971,1.763,1.08c0.223,0.107,0.348,0.091,0.478-0.055
		c0.126-0.144,0.548-0.634,0.694-0.851c0.147-0.218,0.293-0.185,0.494-0.108c0.201,0.07,1.277,0.598,1.5,0.707
		c0.217,0.109,0.363,0.163,0.416,0.252C-42.266,266.588-42.266,267.023-42.45,267.529z"/>
</g>
</svg>
